# xmcd
#
# Track frame offsets:
#  150
#  20227
#  36136
#  54559
#  70625
#  88435
#  103734
#  122078
#  143387
#  159114
#  181171
#  195936
#  214584
#  232730
#  247342
#  264305
#  289033
#  301517
#  317320
#  336416
#
# Disc length: 4652 seconds
#
# Revision: 0
# Processed by: cddbd v1.4PL0 Copyright (c) Steve Scherf et al.
# Submitted via: AltoMP3_Maker 3.0
#
DISCID=0b122a14
DTITLE=Eric Clapton - There's one in every crowd - Money and cigarettes
DYEAR=1900
DGENRE=
TTITLE0=we're been told
TTITLE1=swing low sweet chariot
TTITLE2=little Rachel
TTITLE3=don't blame me
TTITLE4=the sky is crying
TTITLE5=singin' the blues
TTITLE6=better make it through today
TTITLE7=pretty blue eyes
TTITLE8=high
TTITLE9=opposites
TTITLE10=everybody oughta make a change
TTITLE11=the shape you're in
TTITLE12=Ain't going down
TTITLE13=i've got a rock 'n' roll heart
TTITLE14=man overboard
TTITLE15=pretty girl
TTITLE16=man in love
TTITLE17=crosscut saw
TTITLE18=slow down Linda
TTITLE19=crazy country hop
EXTD=
EXTT0=
EXTT1=
EXTT2=
EXTT3=
EXTT4=
EXTT5=
EXTT6=
EXTT7=
EXTT8=
EXTT9=
EXTT10=
EXTT11=
EXTT12=
EXTT13=
EXTT14=
EXTT15=
EXTT16=
EXTT17=
EXTT18=
EXTT19=
PLAYORDER=
